<svg width="288" height="168" viewBox="0 0 288 168" fill="none" xmlns="http://www.w3.org/2000/svg">
  <g clip-path="url(#clip0_819_67562)">
  <g clip-path="url(#clip1_819_67562)">
  <rect opacity="0.2" y="14" width="16" height="16" rx="2" fill="#9D9D96" fill-opacity="0.2"/>
  <rect opacity="0.2" y="32" width="16" height="16" rx="2" fill="#9D9D96" fill-opacity="0.2"/>
  <rect opacity="0.2" y="50" width="16" height="16" rx="2" fill="#9D9D96" fill-opacity="0.2"/>
  <rect opacity="0.2" y="68" width="16" height="16" rx="2" fill="#9D9D96" fill-opacity="0.2"/>
  <rect opacity="0.2" y="86" width="16" height="16" rx="2" fill="#9D9D96" fill-opacity="0.2"/>
  <rect opacity="0.2" y="104" width="16" height="16" rx="2" fill="#9D9D96" fill-opacity="0.2"/>
  <path d="M0 124C0 122.895 0.895431 122 2 122H14C15.1046 122 16 122.895 16 124V136C16 137.105 15.1046 138 14 138H2C0.895431 138 0 137.105 0 136V124Z" fill="#9D9D96" fill-opacity="0.2"/>
  <rect x="18" y="14" width="16" height="16" rx="2" fill="#9D9D96" fill-opacity="0.2"/>
  <rect x="18" y="32" width="16" height="16" rx="2" fill="#00FFB9" fill-opacity="0.4"/>
  <rect x="18" y="50" width="16" height="16" rx="2" fill="#00FFB9" fill-opacity="0.4"/>
  <rect x="18" y="68" width="16" height="16" rx="2" fill="#00FFB9" fill-opacity="0.4"/>
  <rect x="18" y="86" width="16" height="16" rx="2" fill="#00FFB9" fill-opacity="0.4"/>
  <rect x="18" y="104" width="16" height="16" rx="2" fill="#9D9D96" fill-opacity="0.2"/>
  <rect x="18" y="122" width="16" height="16" rx="2" fill="#9D9D96" fill-opacity="0.2"/>
  <rect x="36" y="14" width="16" height="16" rx="2" fill="#9D9D96" fill-opacity="0.2"/>
  <rect x="36" y="32" width="16" height="16" rx="2" fill="#00FFB9" fill-opacity="0.4"/>
  <rect x="36" y="50" width="16" height="16" rx="2" fill="#00FFB9"/>
  <rect x="36" y="68" width="16" height="16" rx="2" fill="#00FFB9" fill-opacity="0.4"/>
  <rect x="36" y="86" width="16" height="16" rx="2" fill="#009E78"/>
  <rect x="36" y="104" width="16" height="16" rx="2" fill="#9D9D96" fill-opacity="0.2"/>
  <rect x="36" y="122" width="16" height="16" rx="2" fill="#009E78"/>
  <rect x="54" y="14" width="16" height="16" rx="2" fill="#00FFB9" fill-opacity="0.4"/>
  <rect x="54" y="32" width="16" height="16" rx="2" fill="#00FFB9" fill-opacity="0.4"/>
  <rect x="54" y="50" width="16" height="16" rx="2" fill="#9D9D96" fill-opacity="0.2"/>
  <rect x="54" y="68" width="16" height="16" rx="2" fill="#9D9D96" fill-opacity="0.2"/>
  <rect x="54" y="86" width="16" height="16" rx="2" fill="#9D9D96" fill-opacity="0.2"/>
  <rect x="54" y="104" width="16" height="16" rx="2" fill="#9D9D96" fill-opacity="0.2"/>
  <rect x="54" y="122" width="16" height="16" rx="2" fill="#9D9D96" fill-opacity="0.2"/>
  <rect x="72" y="14" width="16" height="16" rx="2" fill="#9D9D96" fill-opacity="0.2"/>
  <rect x="72" y="32" width="16" height="16" rx="2" fill="#9D9D96" fill-opacity="0.2"/>
  <rect x="72" y="50" width="16" height="16" rx="2" fill="#9D9D96" fill-opacity="0.2"/>
  <rect x="72" y="68" width="16" height="16" rx="2" fill="#9D9D96" fill-opacity="0.2"/>
  <rect x="72" y="86" width="16" height="16" rx="2" fill="#9D9D96" fill-opacity="0.2"/>
  <rect x="72" y="104" width="16" height="16" rx="2" fill="#00FFB9" fill-opacity="0.4"/>
  <rect x="72" y="122" width="16" height="16" rx="2" fill="#9D9D96" fill-opacity="0.2"/>
  <rect x="90" y="14" width="16" height="16" rx="2" fill="#00FFB9" fill-opacity="0.4"/>
  <rect x="90" y="32" width="16" height="16" rx="2" fill="#00FFB9" fill-opacity="0.4"/>
  <path d="M90 52C90 50.8954 90.8954 50 92 50H104C105.105 50 106 50.8954 106 52V64C106 65.1046 105.105 66 104 66H92C90.8954 66 90 65.1046 90 64V52Z" fill="#00FFB9" fill-opacity="0.4"/>
  <rect x="90" y="68" width="16" height="16" rx="2" fill="#00FFB9" fill-opacity="0.4"/>
  <rect x="90" y="86" width="16" height="16" rx="2" fill="#00FFB9" fill-opacity="0.4"/>
  <rect x="90" y="104" width="16" height="16" rx="2" fill="#9D9D96" fill-opacity="0.2"/>
  <rect x="90" y="122" width="16" height="16" rx="2" fill="#00FFB9" fill-opacity="0.4"/>
  <rect x="108" y="14" width="16" height="16" rx="2" fill="#9D9D96" fill-opacity="0.2"/>
  <rect x="108" y="32" width="16" height="16" rx="2" fill="#9D9D96" fill-opacity="0.2"/>
  <rect x="108" y="50" width="16" height="16" rx="2" fill="#009E78"/>
  <rect x="108" y="68" width="16" height="16" rx="2" fill="#009E78"/>
  <rect x="108" y="86" width="16" height="16" rx="2" fill="#9D9D96" fill-opacity="0.2"/>
  <rect x="108" y="104" width="16" height="16" rx="2" fill="#9D9D96" fill-opacity="0.2"/>
  <rect x="108" y="122" width="16" height="16" rx="2" fill="#9D9D96" fill-opacity="0.2"/>
  <rect x="126" y="14" width="16" height="16" rx="2" fill="#9D9D96" fill-opacity="0.2"/>
  <rect x="126" y="32" width="16" height="16" rx="2" fill="#00FFB9"/>
  <rect x="126" y="50" width="16" height="16" rx="2" fill="#9D9D96" fill-opacity="0.2"/>
  <rect x="126" y="68" width="16" height="16" rx="2" fill="#00FFB9" fill-opacity="0.4"/>
  <rect x="126" y="86" width="16" height="16" rx="2" fill="#00FFB9"/>
  <rect x="126" y="104" width="16" height="16" rx="2" fill="#9D9D96" fill-opacity="0.2"/>
  <rect x="126" y="122" width="16" height="16" rx="2" fill="#9D9D96" fill-opacity="0.2"/>
  <rect x="144" y="14" width="16" height="16" rx="2" fill="#00FFB9" fill-opacity="0.4"/>
  <rect x="144" y="32" width="16" height="16" rx="2" fill="#9D9D96" fill-opacity="0.2"/>
  <rect x="144" y="50" width="16" height="16" rx="2" fill="#00FFB9" fill-opacity="0.4"/>
  <rect x="144" y="68" width="16" height="16" rx="2" fill="#00FFB9" fill-opacity="0.4"/>
  <rect x="144" y="86" width="16" height="16" rx="2" fill="#9D9D96" fill-opacity="0.2"/>
  <rect x="144" y="104" width="16" height="16" rx="2" fill="#9D9D96" fill-opacity="0.2"/>
  <rect x="144" y="122" width="16" height="16" rx="2" fill="#9D9D96" fill-opacity="0.2"/>
  <rect x="162" y="14" width="16" height="16" rx="2" fill="#9D9D96" fill-opacity="0.2"/>
  <rect x="162" y="32" width="16" height="16" rx="2" fill="#00FFB9" fill-opacity="0.4"/>
  <path d="M162 52C162 50.8954 162.895 50 164 50H176C177.105 50 178 50.8954 178 52V64C178 65.1046 177.105 66 176 66H164C162.895 66 162 65.1046 162 64V52Z" fill="#9D9D96" fill-opacity="0.2"/>
  <rect x="162" y="68" width="16" height="16" rx="2" fill="#9D9D96" fill-opacity="0.2"/>
  <rect x="162" y="86" width="16" height="16" rx="2" fill="#9D9D96" fill-opacity="0.2"/>
  <rect x="162" y="104" width="16" height="16" rx="2" fill="#00FFB9"/>
  <rect x="162" y="122" width="16" height="16" rx="2" fill="#9D9D96" fill-opacity="0.2"/>
  <rect x="180" y="14" width="16" height="16" rx="2" fill="#00FFB9" fill-opacity="0.4"/>
  <rect x="180" y="32" width="16" height="16" rx="2" fill="#9D9D96" fill-opacity="0.2"/>
  <rect x="180" y="50" width="16" height="16" rx="2" fill="#9D9D96" fill-opacity="0.2"/>
  <rect x="180" y="68" width="16" height="16" rx="2" fill="#00FFB9"/>
  <rect x="180" y="86" width="16" height="16" rx="2" fill="#9D9D96" fill-opacity="0.2"/>
  <rect x="180" y="104" width="16" height="16" rx="2" fill="#9D9D96" fill-opacity="0.2"/>
  <rect x="180" y="122" width="16" height="16" rx="2" fill="#9D9D96" fill-opacity="0.2"/>
  <rect x="198" y="14" width="16" height="16" rx="2" fill="#00FFB9"/>
  <rect x="198" y="32" width="16" height="16" rx="2" fill="#00FFB9"/>
  <rect x="198" y="50" width="16" height="16" rx="2" fill="#00FFB9"/>
  <rect x="198" y="68" width="16" height="16" rx="2" fill="#9D9D96" fill-opacity="0.2"/>
  <rect x="198" y="86" width="16" height="16" rx="2" fill="#00FFB9" fill-opacity="0.4"/>
  <rect x="198" y="104" width="16" height="16" rx="2" fill="#9D9D96" fill-opacity="0.2"/>
  <rect x="198" y="122" width="16" height="16" rx="2" fill="#00FFB9"/>
  <rect x="216" y="14" width="16" height="16" rx="2" fill="#00FFB9" fill-opacity="0.4"/>
  <rect x="216" y="32" width="16" height="16" rx="2" fill="#9D9D96" fill-opacity="0.2"/>
  <rect x="216" y="50" width="16" height="16" rx="2" fill="#9D9D96" fill-opacity="0.2"/>
  <rect x="216" y="68" width="16" height="16" rx="2" fill="#9D9D96" fill-opacity="0.2"/>
  <rect x="216" y="86" width="16" height="16" rx="2" fill="#00FFB9" fill-opacity="0.4"/>
  <rect x="216" y="104" width="16" height="16" rx="2" fill="#9D9D96" fill-opacity="0.2"/>
  <rect x="216" y="122" width="16" height="16" rx="2" fill="#9D9D96" fill-opacity="0.2"/>
  <rect x="234" y="14" width="16" height="16" rx="2" fill="#9D9D96" fill-opacity="0.2"/>
  <rect x="234" y="32" width="16" height="16" rx="2" fill="#00FFB9" fill-opacity="0.4"/>
  <rect x="234" y="50" width="16" height="16" rx="2" fill="#9D9D96" fill-opacity="0.2"/>
  <rect x="234" y="68" width="16" height="16" rx="2" fill="#00FFB9"/>
  <rect x="234" y="86" width="16" height="16" rx="2" fill="#9D9D96" fill-opacity="0.2"/>
  <path d="M234 106C234 104.895 234.895 104 236 104H248C249.105 104 250 104.895 250 106V118C250 119.105 249.105 120 248 120H236C234.895 120 234 119.105 234 118V106Z" fill="#9D9D96" fill-opacity="0.2"/>
  <rect x="234" y="122" width="16" height="16" rx="2" fill="#9D9D96" fill-opacity="0.2"/>
  <rect x="252" y="14" width="16" height="16" rx="2" fill="#9D9D96" fill-opacity="0.2"/>
  <rect x="252" y="32" width="16" height="16" rx="2" fill="#00FFB9" fill-opacity="0.4"/>
  <rect x="252" y="50" width="16" height="16" rx="2" fill="#9D9D96" fill-opacity="0.2"/>
  <rect x="252" y="68" width="16" height="16" rx="2" fill="#9D9D96" fill-opacity="0.2"/>
  <rect x="252" y="86" width="16" height="16" rx="2" fill="#00FFB9" fill-opacity="0.4"/>
  <rect x="252" y="104" width="16" height="16" rx="2" fill="#9D9D96" fill-opacity="0.2"/>
  <rect x="252" y="122" width="16" height="16" rx="2" fill="#00FFB9" fill-opacity="0.4"/>
  <rect x="270" y="14" width="16" height="16" rx="2" fill="#00FFB9" fill-opacity="0.4"/>
  <rect x="270" y="32" width="16" height="16" rx="2" fill="#00FFB9" fill-opacity="0.4"/>
  <rect x="270" y="50" width="16" height="16" rx="2" fill="#9D9D96" fill-opacity="0.2"/>
  <rect x="270" y="68" width="16" height="16" rx="2" fill="#9D9D96" fill-opacity="0.2"/>
  <rect x="270" y="86" width="16" height="16" rx="2" fill="#00FFB9" fill-opacity="0.4"/>
  <rect x="270" y="104" width="16" height="16" rx="2" fill="#9D9D96" fill-opacity="0.2"/>
  <rect x="270" y="122" width="16" height="16" rx="2" fill="#009E78"/>
  </g>
  <path d="M7.57617 153.313H8.69727V159.835C8.69727 160.505 8.66536 161.018 8.60156 161.373C8.53776 161.724 8.42383 162.016 8.25977 162.248C7.85417 162.84 7.18197 163.137 6.24316 163.137C5.71452 163.137 5.20638 163.046 4.71875 162.863L4.81445 161.934C5.22917 162.12 5.66895 162.214 6.13379 162.214C6.80827 162.214 7.22982 161.986 7.39844 161.53C7.51693 161.216 7.57617 160.489 7.57617 159.35V153.313ZM14.8496 162.173C14.5306 162.519 14.207 162.768 13.8789 162.918C13.5553 163.064 13.1725 163.137 12.7305 163.137C11.9876 163.137 11.4202 162.927 11.0283 162.508C10.682 162.139 10.5088 161.651 10.5088 161.045C10.5088 160.111 10.903 159.445 11.6914 159.049C12.1562 158.816 12.8421 158.7 13.749 158.7C13.8903 158.7 14.2298 158.709 14.7676 158.728V158.536C14.7676 158.021 14.7015 157.629 14.5693 157.36C14.3324 156.868 13.863 156.622 13.1611 156.622C12.5869 156.622 11.9762 156.827 11.3291 157.237L10.8643 156.472C11.6071 156.002 12.4115 155.768 13.2773 155.768C14.3529 155.768 15.0889 156.089 15.4854 156.731C15.6221 156.959 15.7132 157.221 15.7588 157.518C15.8089 157.809 15.834 158.274 15.834 158.912V161.229C15.834 161.959 15.8522 162.549 15.8887 163H14.8975L14.8496 162.173ZM14.7676 159.541C14.5169 159.523 14.2526 159.514 13.9746 159.514C13.2135 159.514 12.6598 159.614 12.3135 159.814C11.8577 160.074 11.6299 160.475 11.6299 161.018C11.6299 161.4 11.7438 161.706 11.9717 161.934C12.2087 162.166 12.5254 162.282 12.9219 162.282C13.6647 162.282 14.2799 161.92 14.7676 161.195V159.541ZM18.2812 163V158.215C18.2812 157.135 18.263 156.365 18.2266 155.904H19.2793L19.3203 157.039C19.7578 156.579 20.1725 156.253 20.5645 156.062C20.9609 155.866 21.4053 155.768 21.8975 155.768C22.7952 155.768 23.4105 156.096 23.7432 156.752C23.848 156.966 23.9232 157.237 23.9688 157.565C24.0143 157.889 24.0371 158.333 24.0371 158.898V163H22.9707V158.878C22.9707 158.167 22.9206 157.668 22.8203 157.381C22.6426 156.875 22.2347 156.622 21.5967 156.622C20.8265 156.622 20.0768 157.064 19.3477 157.948V163H18.2812Z" fill="white" fill-opacity="0.6"/>
  <path d="M59.7887 163V153.313H64.9293V154.236H60.9098V157.627H64.7311V158.55H60.9098V163H59.7887ZM67.3766 159.739C67.4541 160.532 67.6364 161.122 67.9235 161.51C68.3154 162.025 68.8942 162.282 69.6598 162.282C70.3115 162.282 70.9586 162.059 71.6012 161.612L72.0114 162.439C71.2731 162.904 70.4824 163.137 69.6393 163.137C68.5182 163.137 67.6546 162.77 67.0485 162.036C66.5198 161.394 66.2555 160.532 66.2555 159.452C66.2555 158.144 66.6087 157.162 67.3151 156.506C67.8437 156.014 68.5205 155.768 69.3453 155.768C70.6077 155.768 71.4554 156.285 71.8883 157.319C72.1298 157.903 72.2597 158.709 72.278 159.739H67.3766ZM71.1432 158.885C71.1295 158.361 71.0384 157.923 70.8698 157.572C70.5644 156.939 70.0449 156.622 69.3112 156.622C68.7461 156.622 68.2926 156.825 67.9508 157.23C67.609 157.632 67.4267 158.183 67.4039 158.885H71.1432ZM75.108 163H74.1031L74.11 162.747C74.1419 161.854 74.1578 161.077 74.1578 160.416V152.767H75.2242V156.882C75.7757 156.139 76.4729 155.768 77.316 155.768C78.1409 155.768 78.8199 156.118 79.3531 156.82C79.859 157.486 80.1119 158.347 80.1119 159.404C80.1119 160.58 79.8157 161.523 79.2233 162.234C78.7128 162.84 78.0589 163.144 77.2614 163.144C76.8147 163.144 76.4388 163.057 76.1334 162.884C75.8326 162.711 75.5022 162.389 75.1422 161.92L75.108 163ZM75.2242 160.956C75.525 161.435 75.819 161.776 76.1061 161.981C76.3932 162.187 76.7213 162.289 77.0905 162.289C77.7421 162.289 78.2321 161.988 78.5602 161.387C78.8473 160.863 78.9908 160.211 78.9908 159.432C78.9908 158.593 78.8222 157.907 78.485 157.374C78.166 156.873 77.7057 156.622 77.1041 156.622C76.3066 156.622 75.68 157.064 75.2242 157.948V160.956Z" fill="white" fill-opacity="0.6"/>
  <path d="M113.567 163V153.313H115.125L117.867 160.642C118.008 161.02 118.165 161.471 118.338 161.995C118.475 161.562 118.63 161.111 118.803 160.642L121.476 153.313H122.973V163H121.852V154.934C121.51 156.027 121.237 156.852 121.032 157.408L118.94 163H117.641L115.508 157.47C115.276 156.868 114.984 156.023 114.633 154.934V163H113.567ZM129.221 162.173C128.902 162.519 128.578 162.768 128.25 162.918C127.927 163.064 127.544 163.137 127.102 163.137C126.359 163.137 125.792 162.927 125.4 162.508C125.053 162.139 124.88 161.651 124.88 161.045C124.88 160.111 125.274 159.445 126.063 159.049C126.528 158.816 127.214 158.7 128.12 158.7C128.262 158.7 128.601 158.709 129.139 158.728V158.536C129.139 158.021 129.073 157.629 128.941 157.36C128.704 156.868 128.234 156.622 127.533 156.622C126.958 156.622 126.348 156.827 125.701 157.237L125.236 156.472C125.978 156.002 126.783 155.768 127.649 155.768C128.724 155.768 129.46 156.089 129.857 156.731C129.993 156.959 130.085 157.221 130.13 157.518C130.18 157.809 130.205 158.274 130.205 158.912V161.229C130.205 161.959 130.224 162.549 130.26 163H129.269L129.221 162.173ZM129.139 159.541C128.888 159.523 128.624 159.514 128.346 159.514C127.585 159.514 127.031 159.614 126.685 159.814C126.229 160.074 126.001 160.475 126.001 161.018C126.001 161.4 126.115 161.706 126.343 161.934C126.58 162.166 126.897 162.282 127.293 162.282C128.036 162.282 128.651 161.92 129.139 161.195V159.541ZM132.666 163V158.953C132.666 158.064 132.653 157.158 132.625 156.232L132.618 155.904H133.61L133.651 157.21C133.929 156.695 134.223 156.326 134.533 156.103C134.842 155.875 135.212 155.761 135.64 155.761C135.786 155.761 135.952 155.779 136.139 155.815L136.043 156.772C135.911 156.741 135.786 156.725 135.667 156.725C135.143 156.725 134.681 156.989 134.28 157.518C134.052 157.814 133.869 158.144 133.733 158.509V163H132.666Z" fill="white" fill-opacity="0.6"/>
  <path d="M174.379 159.609H170.77L169.58 163H168.445L171.891 153.313H173.306L176.778 163H175.568L174.379 159.609ZM174.044 158.687L173.183 156.137C172.964 155.49 172.766 154.868 172.588 154.271C172.424 154.822 172.223 155.446 171.986 156.144L171.104 158.687H174.044ZM178.187 166.008V158.769C178.187 157.985 178.173 157.158 178.146 156.287L178.132 155.904H179.13L179.171 156.984C179.408 156.661 179.636 156.419 179.854 156.26C180.297 155.932 180.793 155.768 181.345 155.768C182.17 155.768 182.849 156.118 183.382 156.82C183.888 157.486 184.141 158.347 184.141 159.404C184.141 160.58 183.844 161.523 183.252 162.234C182.742 162.84 182.088 163.144 181.29 163.144C180.862 163.144 180.497 163.062 180.196 162.897C179.896 162.733 179.581 162.444 179.253 162.029V166.008H178.187ZM179.253 160.963C179.458 161.273 179.64 161.514 179.8 161.688C180.178 162.089 180.618 162.289 181.119 162.289C181.771 162.289 182.261 161.988 182.589 161.387C182.876 160.863 183.02 160.211 183.02 159.432C183.02 158.593 182.851 157.907 182.514 157.374C182.195 156.873 181.734 156.622 181.133 156.622C180.39 156.622 179.763 157.055 179.253 157.921V160.963ZM186.062 163V158.953C186.062 158.064 186.048 157.158 186.021 156.232L186.014 155.904H187.005L187.046 157.21C187.324 156.695 187.618 156.326 187.928 156.103C188.238 155.875 188.607 155.761 189.035 155.761C189.181 155.761 189.347 155.779 189.534 155.815L189.438 156.772C189.306 156.741 189.181 156.725 189.062 156.725C188.538 156.725 188.076 156.989 187.675 157.518C187.447 157.814 187.265 158.144 187.128 158.509V163H186.062Z" fill="white" fill-opacity="0.6"/>
  <path d="M222.073 163V153.313H223.631L226.373 160.642C226.514 161.02 226.671 161.471 226.844 161.995C226.981 161.562 227.136 161.111 227.309 160.642L229.982 153.313H231.479V163H230.358V154.934C230.016 156.027 229.743 156.852 229.538 157.408L227.446 163H226.147L224.014 157.47C223.782 156.868 223.49 156.023 223.139 154.934V163H222.073ZM237.727 162.173C237.408 162.519 237.085 162.768 236.756 162.918C236.433 163.064 236.05 163.137 235.608 163.137C234.865 163.137 234.298 162.927 233.906 162.508C233.56 162.139 233.386 161.651 233.386 161.045C233.386 160.111 233.781 159.445 234.569 159.049C235.034 158.816 235.72 158.7 236.627 158.7C236.768 158.7 237.107 158.709 237.645 158.728V158.536C237.645 158.021 237.579 157.629 237.447 157.36C237.21 156.868 236.741 156.622 236.039 156.622C235.464 156.622 234.854 156.827 234.207 157.237L233.742 156.472C234.485 156.002 235.289 155.768 236.155 155.768C237.23 155.768 237.966 156.089 238.363 156.731C238.5 156.959 238.591 157.221 238.636 157.518C238.686 157.809 238.712 158.274 238.712 158.912V161.229C238.712 161.959 238.73 162.549 238.766 163H237.775L237.727 162.173ZM237.645 159.541C237.394 159.523 237.13 159.514 236.852 159.514C236.091 159.514 235.537 159.614 235.191 159.814C234.735 160.074 234.507 160.475 234.507 161.018C234.507 161.4 234.621 161.706 234.849 161.934C235.086 162.166 235.403 162.282 235.799 162.282C236.542 162.282 237.158 161.92 237.645 161.195V159.541ZM242.629 163.103L239.833 155.904H240.974L242.594 160.149C242.768 160.614 242.961 161.154 243.175 161.77C243.38 161.168 243.579 160.612 243.77 160.102L245.342 155.904H246.34L243.456 163.602C243.1 164.554 242.731 165.217 242.348 165.591C241.97 165.965 241.473 166.151 240.858 166.151C240.525 166.151 240.177 166.106 239.812 166.015L239.997 165.146C240.279 165.247 240.544 165.297 240.79 165.297C241.086 165.297 241.339 165.224 241.548 165.078C241.758 164.937 241.947 164.704 242.116 164.381C242.316 163.998 242.487 163.572 242.629 163.103Z" fill="white" fill-opacity="0.6"/>
  <path d="M280.479 153.313H281.6V159.835C281.6 160.505 281.568 161.018 281.504 161.373C281.44 161.724 281.326 162.016 281.162 162.248C280.757 162.84 280.085 163.137 279.146 163.137C278.617 163.137 278.109 163.046 277.621 162.863L277.717 161.934C278.132 162.12 278.572 162.214 279.036 162.214C279.711 162.214 280.132 161.986 280.301 161.53C280.42 161.216 280.479 160.489 280.479 159.35V153.313ZM289.605 155.904V160.689C289.605 161.792 289.623 162.562 289.659 163H288.607L288.566 161.865C288.156 162.307 287.748 162.631 287.342 162.836C286.941 163.036 286.508 163.137 286.043 163.137C285.164 163.137 284.56 162.809 284.232 162.152C284.122 161.938 284.045 161.669 283.999 161.346C283.958 161.022 283.938 160.576 283.938 160.006V155.904H285.004V160.026C285.004 160.742 285.054 161.241 285.155 161.523C285.328 162.029 285.722 162.282 286.337 162.282C287.089 162.282 287.823 161.84 288.538 160.956V155.904H289.605ZM292.045 163V158.215C292.045 157.135 292.027 156.365 291.991 155.904H293.043L293.084 157.039C293.522 156.579 293.937 156.253 294.328 156.062C294.725 155.866 295.169 155.768 295.661 155.768C296.559 155.768 297.174 156.096 297.507 156.752C297.612 156.966 297.687 157.237 297.733 157.565C297.778 157.889 297.801 158.333 297.801 158.898V163H296.735V158.878C296.735 158.167 296.685 157.668 296.584 157.381C296.407 156.875 295.999 156.622 295.361 156.622C294.59 156.622 293.841 157.064 293.112 157.948V163H292.045Z" fill="white" fill-opacity="0.6"/>
  </g>
  <defs>
  <clipPath id="clip0_819_67562">
  <rect width="288" height="168" fill="white"/>
  </clipPath>
  <clipPath id="clip1_819_67562">
  <rect width="358" height="124" fill="white" transform="translate(0 14)"/>
  </clipPath>
  </defs>
</svg>
