<svg width="70" height="46" viewBox="0 0 70 46" fill="none" xmlns="http://www.w3.org/2000/svg">
  <path d="M42.0256 36.4081L41.1564 35.1856L42.0256 36.4081ZM63.1354 1.26692C62.7305 0.544194 61.8164 0.286564 61.0936 0.691484L49.3162 7.29003C48.5934 7.69496 48.3358 8.60909 48.7407 9.33182C49.1456 10.0545 50.0598 10.3122 50.7825 9.90725L61.2514 4.04187L67.1168 14.5107C67.5217 15.2335 68.4358 15.4911 69.1585 15.0862C69.8813 14.6813 70.1389 13.7671 69.734 13.0444L63.1354 1.26692ZM1 43.2566C0.86222 44.7503 0.862603 44.7503 0.863092 44.7503C0.863396 44.7504 0.863991 44.7504 0.8646 44.7505C0.865816 44.7506 0.867456 44.7507 0.869515 44.7509C0.873634 44.7513 0.879433 44.7518 0.886893 44.7525C0.901812 44.7538 0.923373 44.7557 0.951413 44.7581C1.00749 44.763 1.0895 44.7698 1.19614 44.7783C1.4094 44.7953 1.72125 44.8188 2.12132 44.8451C2.92135 44.8978 4.07485 44.962 5.49885 45.0092C8.34488 45.1036 12.2814 45.1303 16.6415 44.8588C25.2726 44.3213 35.9055 42.5994 42.8947 37.6306L41.1564 35.1856C34.907 39.6284 25.0272 41.3308 16.4551 41.8646C12.2137 42.1288 8.376 42.103 5.59827 42.0109C4.21039 41.9648 3.08962 41.9023 2.31833 41.8516C1.93274 41.8262 1.63468 41.8038 1.43445 41.7878C1.33433 41.7798 1.2587 41.7735 1.20882 41.7692C1.18388 41.767 1.16538 41.7654 1.15349 41.7643C1.14754 41.7638 1.14325 41.7634 1.14062 41.7632C1.13931 41.7631 1.13841 41.763 1.13794 41.7629C1.1377 41.7629 1.13766 41.7629 1.13754 41.7629C1.13761 41.7629 1.13778 41.7629 1 43.2566ZM42.8947 37.6306C49.5636 32.8896 54.6489 23.9584 58.0321 16.4518C59.741 12.6602 61.048 9.15674 61.928 6.60153C62.3683 5.32305 62.7024 4.27972 62.9272 3.55364C63.0396 3.19054 63.1246 2.90662 63.182 2.71214C63.2107 2.61489 63.2324 2.53998 63.2472 2.4887C63.2546 2.46306 63.2602 2.44332 63.2641 2.42965C63.2661 2.42282 63.2676 2.4175 63.2687 2.41371C63.2692 2.41182 63.2696 2.41031 63.2699 2.40919C63.2701 2.40863 63.2703 2.40808 63.2703 2.4078C63.2705 2.40734 63.2706 2.40699 61.8268 2.00009C60.3831 1.5932 60.3831 1.59303 60.3831 1.59297C60.3831 1.59307 60.3831 1.5931 60.383 1.59332C60.3829 1.59374 60.3827 1.59455 60.3823 1.59575C60.3817 1.59813 60.3805 1.60204 60.379 1.60746C60.3759 1.6183 60.3711 1.63516 60.3645 1.6579C60.3514 1.70338 60.3314 1.77234 60.3045 1.8635C60.2507 2.04584 60.1695 2.31694 60.0613 2.6666C59.8448 3.36604 59.5204 4.37922 59.0915 5.62469C58.2331 8.11739 56.959 11.5317 55.2971 15.2191C51.9386 22.6708 47.1232 30.9436 41.1564 35.1856L42.8947 37.6306Z" fill="#00CCCC"/>
</svg>
