<svg width="306" height="277" viewBox="0 0 306 277" fill="none" xmlns="http://www.w3.org/2000/svg">
  <path d="M303.217 89.0793C296.619 130.439 275.566 168.115 243.801 195.407C212.036 222.7 171.62 237.838 129.744 238.128C121.262 238.454 112.768 237.938 104.388 236.589C86.8611 233.61 70.8854 224.713 59.1249 211.382C47.3644 198.05 40.5301 181.089 39.7619 163.327C39.9312 143.517 47.8828 124.568 61.9005 110.569C75.9175 96.5707 94.8771 88.6463 114.686 88.5064C134.495 88.3664 153.565 96.0222 167.779 109.821C181.993 123.62 190.212 142.455 190.661 162.26C190.978 174.77 185.559 185.742 174.423 186.059C162.525 186.059 156.947 177.568 156.947 166.126V134.331C156.952 129.19 154.923 124.255 151.303 120.603C147.684 116.952 142.767 114.879 137.626 114.839H110.974C103.222 114.785 95.58 116.675 88.7467 120.337C81.9134 123.998 76.1069 129.314 71.8578 135.798C67.6082 142.282 65.0511 149.728 64.4201 157.454C63.7891 165.181 65.1043 172.943 68.2456 180.03C71.3869 187.118 76.2541 193.305 82.4026 198.027C88.551 202.749 95.7847 205.855 103.443 207.062C111.101 208.267 118.938 207.533 126.24 204.929C133.541 202.324 140.074 197.931 145.24 192.152L146.172 190.762L147.105 192.305C150.31 196.66 154.542 200.155 159.424 202.48C164.307 204.805 169.688 205.888 175.089 205.632C184.717 204.932 193.69 200.496 200.092 193.271C206.494 186.047 209.818 176.605 209.355 166.963C209.448 158.689 208.521 150.435 206.594 142.388C201.651 119.655 188.469 99.5566 169.588 85.9685C150.708 72.3804 127.466 66.2631 104.342 68.7959C81.2188 71.3288 59.8518 82.3325 44.3606 99.6856C28.8682 117.04 20.348 139.515 20.4422 162.778C20.7394 187.446 30.5862 211.038 47.9134 228.598C65.2391 246.157 88.6971 256.316 113.357 256.94C113.357 256.94 120.337 257.575 128.205 257.394C166.454 257.152 203.839 245.998 235.967 225.241C236.424 224.923 236.881 225.558 236.577 226.021C220.936 242.872 201.809 256.109 180.528 264.812C159.248 273.515 136.327 277.475 113.36 276.414C98.3457 276.687 83.4318 273.915 69.518 268.266C55.6043 262.617 42.9791 254.207 32.4044 243.545C21.8287 232.883 13.5221 220.188 7.98581 206.228C2.44949 192.268 -0.201922 177.331 0.191487 162.318C0.198713 144.42 4.3802 126.77 12.4037 110.771C20.4272 94.7722 32.0715 80.8649 46.4115 70.1545C65.6825 55.9625 88.9713 48.2741 112.904 48.2029H148.674C162.647 48.1925 176.464 45.2723 189.246 39.6283C202.028 33.9843 213.495 25.7402 222.916 15.4211C223.115 15.2004 223.38 15.0493 223.671 14.9901C223.962 14.9271 224.265 14.9572 224.538 15.0762C224.811 15.1952 225.039 15.397 225.191 15.653C225.344 15.91 225.413 16.208 225.388 16.507C223.872 32.5846 218.519 48.0637 209.781 61.644C209.651 61.8799 209.593 62.1483 209.614 62.4166C209.634 62.6849 209.732 62.9415 209.896 63.1549C210.059 63.3681 210.28 63.5295 210.533 63.6194C210.785 63.7094 211.059 63.7242 211.32 63.6619C227.832 59.9318 243.237 52.3778 256.297 41.6078C269.357 30.8377 279.707 17.1524 286.513 1.65295C286.686 1.37597 286.924 1.14599 287.208 0.982997C287.493 0.822133 287.815 0.73761 288.142 0.73761C288.47 0.73761 288.791 0.822133 289.077 0.982997C289.361 1.14499 289.6 1.37497 289.771 1.65295C303.789 28.5088 308.518 59.252 303.217 89.0793ZM113.265 133.934C109.151 133.934 105.087 134.845 101.367 136.604C97.6477 138.363 94.3644 140.925 91.7541 144.105C89.1437 147.286 87.2714 151.006 86.2719 154.997C85.2724 158.988 85.1706 163.152 85.9739 167.187C87.0475 172.585 89.6974 177.543 93.5885 181.434C97.4796 185.326 102.437 187.976 107.834 189.051C111.87 189.853 116.033 189.751 120.024 188.751C124.015 187.751 127.734 185.878 130.914 183.267C134.094 180.657 136.656 177.373 138.414 173.654C140.173 169.934 141.084 165.871 141.083 161.757V135.781C141.058 135.284 140.85 134.814 140.498 134.463C140.146 134.111 139.676 133.902 139.179 133.877L113.265 133.934Z" fill="#702AF7"/>
</svg>
