<svg width="340" height="340" viewBox="0 0 340 340" fill="none" xmlns="http://www.w3.org/2000/svg">
  <g clip-path="url(#clip0_899_18986)">
  <path d="M0 0H340V340H0V0Z" fill="#F0DB4F"/>
  <path d="M312.173 258.911C309.684 243.397 299.568 230.373 269.608 218.221C259.201 213.437 247.599 210.012 244.141 202.125C242.912 197.536 242.751 194.951 243.527 192.171C245.757 183.154 256.519 180.342 265.051 182.928C270.546 184.77 275.749 189.004 278.884 195.759C293.557 186.257 293.525 186.321 303.77 179.793C300.021 173.976 298.017 171.293 295.561 168.805C286.738 158.947 274.715 153.873 255.485 154.261C252.156 154.681 248.795 155.133 245.466 155.554C235.867 157.978 226.72 163.019 221.355 169.774C205.26 188.035 209.85 219.998 229.435 233.152C248.73 247.632 277.074 250.928 280.694 264.47C284.217 281.05 268.51 286.414 252.899 284.508C241.393 282.116 234.995 276.266 228.078 265.633C215.344 273.002 215.344 273.002 202.255 280.533C205.358 287.32 208.622 290.39 213.825 296.272C238.453 321.255 300.085 320.027 311.139 282.213C311.591 280.92 314.565 272.259 312.173 258.911ZM184.835 156.264H153.032C153.032 183.736 152.903 211.013 152.903 238.485C152.903 255.97 153.808 272 150.964 276.913C146.31 286.576 134.255 285.38 128.761 283.505C123.169 280.758 120.325 276.848 117.029 271.321C116.124 269.738 115.445 268.51 115.219 268.413C106.59 273.681 97.9923 278.981 89.363 284.249C93.6618 293.072 99.9961 300.732 108.108 305.709C120.228 312.981 136.517 315.211 153.55 311.3C164.635 308.068 174.201 301.378 179.211 291.198C186.45 277.85 184.899 261.69 184.835 243.818C184.996 214.665 184.835 185.513 184.835 156.264Z" fill="#323330"/>
  </g>
  <defs>
  <clipPath id="clip0_899_18986">
  <rect width="340" height="340" fill="white"/>
  </clipPath>
  </defs>
</svg>
