<svg width="299" height="340" viewBox="0 0 299 340" fill="none" xmlns="http://www.w3.org/2000/svg">
  <g clip-path="url(#clip0_899_18985)">
  <path d="M298.651 170.03C298.651 150.264 273.947 131.531 236.073 119.915C244.813 81.2329 240.928 50.4579 223.812 40.605C219.867 38.2938 215.254 37.199 210.216 37.199V50.762C213.008 50.762 215.254 51.3093 217.135 52.3433C225.39 57.0873 228.971 75.1509 226.179 98.3842C225.511 104.101 224.419 110.122 223.083 116.265C211.187 113.346 198.198 111.096 184.541 109.636C176.347 98.3842 167.85 88.1664 159.291 79.2258C179.078 60.7973 197.652 50.7011 210.277 50.7011V37.1382C193.585 37.1382 171.734 49.059 149.641 69.7379C127.547 49.1806 105.696 37.3815 89.0046 37.3815V50.9444C101.569 50.9444 120.203 60.9798 139.99 79.2866C131.492 88.2272 122.995 98.3842 114.922 109.636C101.205 111.096 88.2155 113.346 76.319 116.326C74.923 110.244 73.8911 104.345 73.1628 98.6883C70.31 75.455 73.8304 57.3914 82.0245 52.5866C83.8454 51.4918 86.2125 51.0052 89.0046 51.0052V37.4423C83.9061 37.4423 79.2931 38.5371 75.2871 40.8483C58.2314 50.7011 54.4075 81.4153 63.2085 119.975C25.4552 131.653 0.873047 150.325 0.873047 170.03C0.873047 189.797 25.5766 208.53 63.4513 220.146C54.711 258.828 58.5956 289.603 75.712 299.456C79.6573 301.767 84.2703 302.862 89.3688 302.862C106.06 302.862 127.911 290.941 150.005 270.262C172.098 290.819 193.949 302.618 210.641 302.618C215.739 302.618 220.352 301.524 224.358 299.213C241.414 289.36 245.238 258.645 236.437 220.085C274.069 208.469 298.651 189.736 298.651 170.03ZM219.624 129.463C217.378 137.309 214.586 145.398 211.43 153.487C208.941 148.622 206.331 143.756 203.478 138.89C200.686 134.025 197.712 129.281 194.738 124.659C203.357 125.936 211.673 127.517 219.624 129.463ZM191.825 194.237C187.09 202.448 182.235 210.233 177.197 217.47C168.153 218.261 158.988 218.687 149.762 218.687C140.597 218.687 131.432 218.261 122.448 217.531C117.411 210.293 112.494 202.569 107.76 194.419C103.147 186.452 98.9588 178.363 95.135 170.213C98.8981 162.063 103.147 153.913 107.699 145.946C112.434 137.735 117.289 129.95 122.327 122.712C131.371 121.922 140.536 121.496 149.762 121.496C158.927 121.496 168.092 121.922 177.075 122.651C182.113 129.889 187.03 137.613 191.764 145.763C196.377 153.731 200.565 161.82 204.389 169.97C200.565 178.119 196.377 186.269 191.825 194.237ZM211.43 186.33C214.707 194.48 217.499 202.63 219.806 210.537C211.855 212.483 203.478 214.125 194.799 215.402C197.773 210.719 200.747 205.914 203.539 200.988C206.331 196.122 208.941 191.196 211.43 186.33ZM149.883 251.225C144.239 245.387 138.594 238.879 133.01 231.763C138.472 232.006 144.056 232.189 149.701 232.189C155.407 232.189 161.052 232.067 166.575 231.763C161.112 238.879 155.467 245.387 149.883 251.225ZM104.725 215.402C96.1061 214.125 87.7906 212.544 79.8394 210.597C82.0852 202.752 84.8772 194.663 88.0334 186.574C90.522 191.439 93.132 196.305 95.9847 201.17C98.8374 206.036 101.751 210.78 104.725 215.402ZM149.58 88.8354C155.225 94.6742 160.869 101.182 166.454 108.298C160.991 108.055 155.407 107.872 149.762 107.872C144.056 107.872 138.412 107.994 132.888 108.298C138.351 101.182 143.996 94.6742 149.58 88.8354ZM104.664 124.659C101.69 129.342 98.716 134.146 95.924 139.073C93.132 143.939 90.522 148.804 88.0334 153.67C84.7558 145.52 81.9638 137.37 79.6573 129.463C87.6086 127.578 95.9847 125.936 104.664 124.659ZM49.7339 200.805C28.2472 191.622 14.3477 179.579 14.3477 170.03C14.3477 160.482 28.2472 148.378 49.7339 139.255C54.9538 137.005 60.6593 134.998 66.5468 133.113C70.0065 145.033 74.5588 157.441 80.2036 170.152C74.6195 182.803 70.1279 195.149 66.7289 207.009C60.72 205.124 55.0145 203.056 49.7339 200.805ZM82.3887 287.718C74.1339 282.974 70.5528 264.91 73.3449 241.677C74.0125 235.96 75.1051 229.938 76.4404 223.795C88.3369 226.715 101.326 228.965 114.983 230.425C123.177 241.677 131.674 251.894 140.233 260.835C120.445 279.264 101.872 289.36 89.2474 289.36C86.516 289.299 84.2096 288.751 82.3887 287.718ZM226.361 241.373C229.214 264.606 225.693 282.669 217.499 287.474C215.678 288.569 213.311 289.056 210.519 289.056C197.955 289.056 179.321 279.02 159.534 260.713C168.032 251.773 176.529 241.616 184.602 230.364C198.319 228.904 211.308 226.654 223.205 223.674C224.601 229.817 225.693 235.716 226.361 241.373ZM249.729 200.805C244.509 203.056 238.804 205.063 232.916 206.948C229.457 195.028 224.904 182.62 219.26 169.909C224.844 157.258 229.335 144.912 232.734 133.052C238.743 134.937 244.449 137.005 249.79 139.255C271.277 148.439 285.176 160.482 285.176 170.03C285.115 179.579 271.216 191.682 249.729 200.805Z" fill="#61DAFB"/>
  <path d="M149.701 197.825C165.021 197.825 177.44 185.381 177.44 170.03C177.44 154.68 165.021 142.236 149.701 142.236C134.382 142.236 121.963 154.68 121.963 170.03C121.963 185.381 134.382 197.825 149.701 197.825Z" fill="#61DAFB"/>
  </g>
  <defs>
  <clipPath id="clip0_899_18985">
  <rect width="297.778" height="340" fill="white" transform="translate(0.873047)"/>
  </clipPath>
  </defs>
</svg>
